<svg xmlns="http://www.w3.org/2000/svg" width="1400" height="560" viewBox="0 0 1400 560" role="img" aria-labelledby="title desc">
  <title id="title">Paid Promo Hider marquee tile</title>
  <desc id="desc">A wide promotional tile with video thumbnails and a crossed-out paid promotion banner.</desc>
  <rect width="1400" height="560" fill="#f8fafc"/>
  <g transform="translate(92 76)">
    <rect x="0" y="0" width="652" height="408" rx="24" fill="#ffffff"/>
    <g transform="translate(34 34)">
      <rect x="0" y="0" width="272" height="154" rx="12" fill="#111827"/>
      <rect x="20" y="20" width="232" height="104" rx="9" fill="#1f2937"/>
      <rect x="34" y="34" width="160" height="34" rx="17" fill="#f9fafb"/>
      <path d="M52 45 H82 L98 51 L82 57 H52 Z" fill="none" stroke="#111827" stroke-width="6" stroke-linejoin="round" stroke-linecap="round"/>
      <circle cx="62" cy="51" r="3" fill="#111827"/>
      <text x="118" y="59" font-family="-apple-system, BlinkMacSystemFont, 'Segoe UI', sans-serif" font-size="16" font-weight="800" fill="#111827">Hidden</text>
      <path d="M46 70 L104 32" stroke="#ef4444" stroke-width="7" stroke-linecap="round"/>
      <rect x="202" y="100" width="46" height="18" rx="4" fill="#111827" opacity="0.76"/>
      <rect x="0" y="178" width="212" height="12" rx="6" fill="#111827"/>
      <rect x="0" y="202" width="248" height="8" rx="4" fill="#64748b"/>
    </g>
    <g transform="translate(346 34)">
      <rect x="0" y="0" width="272" height="154" rx="12" fill="#111827"/>
      <rect x="20" y="20" width="232" height="104" rx="9" fill="#273449"/>
      <rect x="202" y="100" width="46" height="18" rx="4" fill="#111827" opacity="0.76"/>
      <rect x="0" y="178" width="228" height="12" rx="6" fill="#111827"/>
      <rect x="0" y="202" width="216" height="8" rx="4" fill="#64748b"/>
    </g>
    <g transform="translate(34 260)">
      <rect x="0" y="0" width="272" height="112" rx="12" fill="#111827"/>
      <rect x="18" y="18" width="236" height="66" rx="8" fill="#334155"/>
      <rect x="0" y="134" width="238" height="12" rx="6" fill="#111827"/>
    </g>
    <g transform="translate(346 260)">
      <rect x="0" y="0" width="272" height="112" rx="12" fill="#111827"/>
      <rect x="18" y="18" width="236" height="66" rx="8" fill="#1f2937"/>
      <rect x="0" y="134" width="204" height="12" rx="6" fill="#111827"/>
    </g>
  </g>
  <g transform="translate(824 150)">
    <text x="0" y="0" font-family="-apple-system, BlinkMacSystemFont, 'Segoe UI', sans-serif" font-size="58" font-weight="850" fill="#111827">Paid Promo Hider</text>
    <text x="0" y="58" font-family="-apple-system, BlinkMacSystemFont, 'Segoe UI', sans-serif" font-size="58" font-weight="850" fill="#111827">for YouTube™</text>
    <text x="2" y="118" font-family="-apple-system, BlinkMacSystemFont, 'Segoe UI', sans-serif" font-size="25" fill="#475569">Hide the clickable paid promotion banner</text>
    <text x="2" y="156" font-family="-apple-system, BlinkMacSystemFont, 'Segoe UI', sans-serif" font-size="25" fill="#475569">on video thumbnails.</text>
    <rect x="2" y="210" width="184" height="48" rx="24" fill="#111827"/>
    <text x="94" y="241" text-anchor="middle" font-family="-apple-system, BlinkMacSystemFont, 'Segoe UI', sans-serif" font-size="18" font-weight="800" fill="#ffffff">No tracking</text>
    <rect x="204" y="210" width="224" height="48" rx="24" fill="#e5e7eb"/>
    <text x="316" y="241" text-anchor="middle" font-family="-apple-system, BlinkMacSystemFont, 'Segoe UI', sans-serif" font-size="18" font-weight="800" fill="#111827">Local-only</text>
  </g>
</svg>
